<svg width="60" height="63" viewBox="0 0 60 63" fill="none" xmlns="http://www.w3.org/2000/svg">
<path d="M6.58333 18.334H47.4167V12.5007H6.58333V18.334ZM6.58333 59.1673C4.97917 59.1673 3.60639 58.5966 2.465 57.4552C1.32361 56.3138 0.751944 54.9401 0.75 53.334V12.5007C0.75 10.8965 1.32167 9.52371 2.465 8.38232C3.60833 7.24093 4.98111 6.66926 6.58333 6.66732H9.5V0.833984H15.3333V6.66732H38.6667V0.833984H44.5V6.66732H47.4167C49.0208 6.66732 50.3946 7.23898 51.5379 8.38232C52.6813 9.52565 53.2519 10.8984 53.25 12.5007V29.0527C52.3264 28.6152 51.3785 28.2507 50.4062 27.959C49.434 27.6673 48.4375 27.4486 47.4167 27.3027V24.1673H6.58333V53.334H24.9583C25.2986 54.4034 25.7001 55.4243 26.1629 56.3965C26.6257 57.3687 27.1721 58.2923 27.8021 59.1673H6.58333ZM44.5 62.084C40.4653 62.084 37.0265 60.6616 34.1838 57.8169C31.341 54.9722 29.9186 51.5334 29.9167 47.5006C29.9147 43.4679 31.3371 40.0291 34.1838 37.1844C37.0304 34.3397 40.4692 32.9173 44.5 32.9173C48.5308 32.9173 51.9706 34.3397 54.8192 37.1844C57.6678 40.0291 59.0892 43.4679 59.0833 47.5006C59.0775 51.5334 57.6551 54.9731 54.8163 57.8198C51.9774 60.6665 48.5386 62.0879 44.5 62.084ZM49.3854 54.4277L51.4271 52.3861L45.9583 46.9173V38.7506H43.0417V48.084L49.3854 54.4277Z" fill="#F5B092"/>
</svg>
