<svg width="107" height="103" viewBox="0 0 107 103" fill="none" xmlns="http://www.w3.org/2000/svg">
<path d="M53.0801 102.316C27.5467 102.316 0 86.3009 0 51.1582C0 16.0155 27.5467 0 53.0801 0C67.2652 0 80.3522 4.66738 90.0531 13.1785C100.578 22.5133 106.16 35.6918 106.16 51.1582C106.16 66.6246 100.578 79.7116 90.0531 89.0464C80.3522 97.5575 67.1737 102.316 53.0801 102.316Z" fill="#FF9500"/>
<path d="M96.9073 20.7461C101.785 28.6166 104.329 37.988 104.329 48.4118C104.329 63.8782 98.7468 76.9652 88.2223 86.3C78.5215 94.8111 65.343 99.57 51.2493 99.57C34.7213 99.57 17.3879 92.8435 7.15625 78.5759C17.0035 94.7379 35.5266 102.316 53.0796 102.316C67.1733 102.316 80.3518 97.5566 90.0527 89.0455C100.577 79.7107 106.16 66.6237 106.16 51.1573C106.16 39.498 102.984 29.1382 96.9073 20.7461Z" fill="#FF9500"/>
<path d="M35.1437 31.0605C31.3091 31.0605 27.8223 34.3003 27.8223 39.6815C27.8223 45.0627 31.3091 48.2933 35.1437 48.2933C38.9874 48.2933 42.465 45.0536 42.465 39.6815C42.465 34.3094 39.024 31.0605 35.1437 31.0605Z" fill="white"/>
<path d="M34.8213 34.6569C33.5218 34.0345 31.9568 34.5836 31.3254 35.8832C30.8403 36.899 31.06 38.1162 31.8745 38.9033C33.174 39.5256 34.739 38.9765 35.3704 37.6769C35.8555 36.6611 35.6358 35.4439 34.8213 34.6569Z" fill="white"/>
<path d="M70.2862 31.0605C66.4517 31.0605 62.9648 34.3003 62.9648 39.6815C62.9648 45.0627 66.4517 48.2933 70.2862 48.2933C74.1208 48.2933 77.6076 45.0536 77.6076 39.6815C77.6076 34.3094 74.1208 31.0605 70.2862 31.0605Z" fill="white"/>
<path d="M69.919 34.6569C68.6194 34.0345 67.0545 34.5836 66.423 35.8832C65.938 36.899 66.1576 38.1162 66.9721 38.9033C68.2717 39.5256 69.8366 38.9765 70.4681 37.6769C70.9531 36.6611 70.7335 35.4439 69.919 34.6569Z" fill="white"/>
<path d="M31.482 77.7345C37.9523 72.9024 45.4841 69.681 53.4461 68.3356C61.3624 66.8439 69.5166 67.2649 77.2407 69.5528C78.5311 69.9464 79.5377 68.4089 78.4853 67.6401C71.594 62.625 62.1128 60.3187 52.2656 62.0942C42.4183 63.8696 34.3465 69.2783 29.6516 76.38C28.9103 77.4599 30.3838 78.5581 31.482 77.7345Z" fill="white"/>
</svg>
