<svg width="107" height="99" viewBox="0 0 107 99" fill="none" xmlns="http://www.w3.org/2000/svg">
<path d="M52.7448 98.8729C28.0708 98.8729 1.45117 83.3964 1.45117 49.4364C1.45117 15.4765 28.0708 0 52.7448 0C66.4526 0 79.0991 4.5103 88.4735 12.735C98.6437 21.7556 104.038 34.4905 104.038 49.4364C104.038 64.3823 98.6437 77.0289 88.4735 86.0495C79.0991 94.2741 66.3641 98.8729 52.7448 98.8729Z" fill="#00C7BE"/>
<path d="M95.0976 20.0488C99.8113 27.6544 102.27 36.7104 102.27 46.7834C102.27 61.7293 96.8752 74.3759 86.7049 83.3965C77.3306 91.6211 64.5956 96.2199 50.9763 96.2199C35.0045 96.2199 18.2545 89.7197 8.36719 75.9324C17.883 91.5504 35.7827 98.873 52.745 98.873C66.3644 98.873 79.0993 94.2742 88.4737 86.0496C98.644 77.029 104.039 64.3824 104.039 49.4365C104.039 38.1696 100.97 28.1585 95.0976 20.0488Z" fill="#00C7BE"/>
<path d="M53.0987 76.7735C42.9195 76.7735 35.65 71.4673 33.4656 68.1597C32.6431 67.0896 32.4751 65.657 33.0234 64.4277C33.4391 63.6406 34.2615 63.1542 35.1547 63.1807C35.482 63.1807 35.8092 63.2338 36.1187 63.3311C41.6284 64.9937 47.3502 65.825 53.0987 65.7896C58.8471 65.825 64.5778 64.9937 70.0786 63.3311C70.3882 63.2338 70.7154 63.1807 71.0426 63.1807C71.9358 63.1542 72.7583 63.6406 73.1739 64.4277C73.7222 65.657 73.5542 67.0896 72.7317 68.1597C70.5473 71.485 63.2778 76.7735 53.0987 76.7735Z" fill="white"/>
<path d="M106.16 33.9774C106.16 33.9774 102.393 34.057 102.393 37.0727C102.393 44.5191 102.481 60.4997 82.9365 60.4997C67.3185 60.4997 59.8632 52.4342 58.6074 43.5286C58.0945 39.8231 56.8386 35.7903 53.0624 35.7903C49.2861 35.7903 48.0657 39.7966 47.5527 43.5286C46.2969 52.4342 38.8417 60.4997 23.2236 60.4997C3.71436 60.4997 3.76743 44.5191 3.76743 37.0727C3.76743 34.057 0 33.9774 0 33.9774V26.6017C6.05795 25.8058 12.1601 25.4343 18.2623 25.4874C29.2993 25.4874 33.6946 25.4874 42.4764 26.3718C47.6677 26.8847 53.0889 26.9466 53.0889 26.9466C53.0889 26.9466 58.4836 26.8847 63.7014 26.3718C72.4832 25.4874 76.8785 25.4874 87.9155 25.4874C94.0177 25.4343 100.111 25.8146 106.16 26.6017V33.9774Z" fill="white"/>
<path d="M15.1774 39.7973C15.0889 41.2123 14.5229 42.5212 13.1345 42.7865C12.9753 42.813 12.8249 42.8307 12.6658 42.8307C11.4188 42.8218 10.3487 41.9198 10.1541 40.6817C9.61467 38.2408 10.2072 35.685 11.7637 33.7305C13.1964 31.9971 15.3366 30.9978 17.5829 31.0066C18.9183 30.8828 20.1033 31.8645 20.2271 33.1999C20.2271 33.2264 20.236 33.2529 20.236 33.2883C20.236 34.9509 18.9094 35.6584 17.5829 36.1183C16.1325 36.7727 15.1951 38.2054 15.1774 39.7973Z" fill="white"/>
<path d="M71.406 39.7973C71.3264 41.2123 70.7516 42.5212 69.3719 42.7865C69.2128 42.813 69.0536 42.8307 68.8944 42.8307C67.6386 42.8307 66.5685 41.9198 66.3651 40.6817C65.8256 38.2408 66.4181 35.685 67.9746 33.7305C69.4162 31.9971 71.5475 30.9978 73.8027 31.0066C75.1381 30.8828 76.3231 31.8645 76.4469 33.1999C76.4469 33.2264 76.4558 33.2529 76.4558 33.2883C76.4558 34.9509 75.1292 35.6584 73.8027 36.1183C72.3611 36.7727 71.4237 38.2054 71.406 39.7973Z" fill="white"/>
</svg>
