<svg width="107" height="103" viewBox="0 0 107 103" fill="none" xmlns="http://www.w3.org/2000/svg">
<path d="M53.0801 102.316C27.5467 102.316 0 86.3009 0 51.1582C0 16.0155 27.5467 0 53.0801 0C67.2652 0 80.3522 4.66738 90.0531 13.1785C100.578 22.5133 106.16 35.6918 106.16 51.1582C106.16 66.6246 100.578 79.7116 90.0531 89.0464C80.3522 97.5575 67.1737 102.316 53.0801 102.316Z" fill="#FF3B30"/>
<path d="M96.9073 20.7461C101.785 28.6166 104.329 37.988 104.329 48.4118C104.329 63.8782 98.7468 76.9652 88.2223 86.3C78.5215 94.8111 65.343 99.57 51.2493 99.57C34.7213 99.57 17.3879 92.8435 7.15625 78.5759C17.0035 94.7379 35.5266 102.316 53.0796 102.316C67.1733 102.316 80.3518 97.5566 90.0527 89.0455C100.577 79.7107 106.16 66.6237 106.16 51.1573C106.16 39.498 102.984 29.1382 96.9073 20.7461Z" fill="#EB0000"/>
<path d="M53.3558 68.6387C43.7465 68.6387 36.8827 74.4043 34.8693 77.6074C34.1005 78.6324 33.9266 79.9868 34.4117 81.1765C34.7961 81.9361 35.5831 82.3937 36.4251 82.3663C36.7362 82.348 37.0474 82.2839 37.3402 82.1832C42.1907 80.6274 46.4005 78.431 53.3558 78.431C60.3111 78.431 64.5209 80.719 69.3713 82.1832C69.6642 82.2839 69.9753 82.348 70.2865 82.3663C71.1285 82.3937 71.9155 81.9361 72.2999 81.1765C72.8307 79.996 72.6476 78.6141 71.8423 77.6074C69.8289 74.4043 62.9651 68.6387 53.3558 68.6387Z" fill="white"/>
<path d="M35.1437 39.2969C31.3091 39.2969 27.8223 42.5366 27.8223 47.9178C27.8223 53.299 31.3091 56.5296 35.1437 56.5296C38.9874 56.5296 42.465 53.2899 42.465 47.9178C42.465 42.5457 39.024 39.2969 35.1437 39.2969Z" fill="white"/>
<path d="M34.8213 42.8951C33.5218 42.2728 31.9568 42.8219 31.3254 44.1215C30.8403 45.1373 31.06 46.3545 31.8745 47.1415C33.174 47.7639 34.739 47.2148 35.3704 45.9152C35.8555 44.8994 35.6358 43.6822 34.8213 42.8951Z" fill="white"/>
<path d="M70.2862 39.2969C66.4517 39.2969 62.9648 42.5366 62.9648 47.9178C62.9648 53.299 66.4517 56.5296 70.2862 56.5296C74.1208 56.5296 77.6076 53.2899 77.6076 47.9178C77.6076 42.5457 74.1208 39.2969 70.2862 39.2969Z" fill="white"/>
<path d="M69.919 42.8951C68.6194 42.2728 67.0545 42.8219 66.423 44.1215C65.938 45.1373 66.1576 46.3545 66.9721 47.1415C68.2717 47.7639 69.8366 47.2148 70.4681 45.9152C70.9531 44.8994 70.7335 43.6822 69.919 42.8951Z" fill="white"/>
<path d="M19.9509 25.4438C17.9375 25.8099 17.846 28.7384 20.0424 28.8299C24.8928 28.894 29.5785 27.0911 33.1294 23.7965C34.4838 22.6251 35.6278 21.234 36.5155 19.6782C37.0463 18.9186 36.8633 17.8753 36.1037 17.3445C35.3441 16.8137 34.3008 16.9967 33.77 17.7563L33.6785 17.8478C30.091 21.8563 25.2497 24.5378 19.9509 25.4438Z" fill="white"/>
<path d="M72.2072 17.7563C71.6764 16.9967 70.6331 16.8137 69.8735 17.3445C69.1139 17.8753 68.9309 18.9186 69.4617 19.6782C70.3494 21.234 71.4934 22.6251 72.8478 23.7965C76.417 27.0636 81.0935 28.8665 85.9348 28.8299C88.2227 28.7384 88.0397 25.8099 86.0263 25.4438C80.6634 24.5652 75.7855 21.8472 72.2072 17.7563Z" fill="white"/>
</svg>
