<svg width="107" height="103" viewBox="0 0 107 103" fill="none" xmlns="http://www.w3.org/2000/svg">
<path d="M53.0801 102.316C27.5467 102.316 0 86.3009 0 51.1582C0 16.0155 27.5467 0 53.0801 0C67.2652 0 80.3522 4.66738 90.0531 13.1785C100.578 22.5133 106.16 35.6918 106.16 51.1582C106.16 66.6246 100.578 79.7116 90.0531 89.0464C80.3522 97.5575 67.1737 102.316 53.0801 102.316Z" fill="#FFCC00"/>
<path d="M96.9073 20.7461C101.785 28.6166 104.329 37.988 104.329 48.4118C104.329 63.8782 98.7468 76.9652 88.2223 86.3C78.5215 94.8111 65.343 99.57 51.2493 99.57C34.7213 99.57 17.3879 92.8435 7.15625 78.5759C17.0035 94.7379 35.5266 102.316 53.0796 102.316C67.1733 102.316 80.3518 97.5566 90.0527 89.0455C100.577 79.7107 106.16 66.6237 106.16 51.1573C106.16 39.498 102.984 29.1382 96.9073 20.7461Z" fill="#FFCC00"/>
<path d="M76.3256 74.13H30.5669C28.5444 74.13 26.9062 72.4918 26.9062 70.4693C26.9062 68.4468 28.5444 66.8086 30.5669 66.8086H76.3256C78.3481 66.8086 79.9863 68.4468 79.9863 70.4693C79.9863 72.4918 78.3481 74.13 76.3256 74.13Z" fill="white"/>
<path d="M35.7569 35.6367C31.9224 35.6367 28.4355 38.8764 28.4355 44.2577C28.4355 49.6389 31.9224 52.8694 35.7569 52.8694C39.5915 52.8694 43.0783 49.6297 43.0783 44.2577C43.0783 38.8856 39.5915 35.6367 35.7569 35.6367Z" fill="white"/>
<path d="M35.3995 39.233C34.0999 38.6107 32.535 39.1598 31.9035 40.4594C31.4185 41.4752 31.6381 42.6924 32.4526 43.4794C33.7522 44.1018 35.3171 43.5527 35.9486 42.2531C36.4336 41.2373 36.214 40.0201 35.3995 39.233Z" fill="white"/>
<path d="M70.8351 35.6367C67.0005 35.6367 63.5137 38.8764 63.5137 44.2577C63.5137 49.6389 67.0005 52.8694 70.8351 52.8694C74.6696 52.8694 78.1564 49.6297 78.1564 44.2577C78.1564 38.8856 74.6879 35.6367 70.8351 35.6367Z" fill="white"/>
<path d="M70.4952 39.233C69.1956 38.6107 67.6307 39.1598 66.9992 40.4594C66.5142 41.4752 66.7338 42.6924 67.5483 43.4794C68.8479 44.1018 70.4128 43.5527 71.0443 42.2531C71.5293 41.2373 71.3097 40.0201 70.4952 39.233Z" fill="white"/>
</svg>
